Coordinates
version=1
nRows=8
nColumns=36
inDegrees=yes

Units are S.I. units (second, meters, Newtons, ...)
If the header above contains a line with 'inDegrees', this indicates whether rotational values are in degrees (yes) or radians (no).

endheader
time	pelvis_tilt	pelvis_list	pelvis_rotation	pelvis_tx	pelvis_ty	pelvis_tz	hip_flexion_r	hip_adduction_r	hip_rotation_r	knee_angle_r	knee_angle_r_beta	ankle_angle_r	subtalar_angle_r	mtp_angle_r	hip_flexion_l	hip_adduction_l	hip_rotation_l	knee_angle_l	knee_angle_l_beta	ankle_angle_l	subtalar_angle_l	mtp_angle_l	lumbar_extension	lumbar_bending	lumbar_rotation	arm_flex_r	arm_add_r	arm_rot_r	elbow_flex_r	pro_sup_r	arm_flex_l	arm_add_l	arm_rot_l	elbow_flex_l	pro_sup_l
      0.00000000	    -20.98403636	      0.29813731	      0.61118502	     -1.05153330	      1.25640242	     -0.10759626	     27.07839510	     -3.52664179	     -1.25694894	      4.15018712	      0.07243443	      1.89242251	     -5.94452139	     -6.11539309	     28.42335611	      1.34692931	      2.10719009	      7.69864277	      0.13436666	      1.57107010	     -1.42448048	     -6.11539309	     -5.31327311	      1.03238735	      3.60095605	    -22.27794571	    -32.87888121	     31.44242688	     90.61482798	     85.96328531	     -8.37197239	    -34.06323782	     51.18035701	     79.33036800	     70.17157670
      0.00416670	    -23.34053595	      0.21638836	      1.39925487	     -1.05239275	      1.25535971	     -0.10725099	     29.19430945	     -3.73577182	     -0.36162503	      3.35494128	      0.05855477	      4.91343564	     -1.96133814	     -6.24072798	     30.28225986	      1.90518071	      3.77081268	      6.05059030	      0.10560272	      1.05800973	      0.92685720	     -6.24072798	     -2.97576087	      0.13514123	      3.05943492	    -22.32700857	    -33.30945760	     35.81359332	     88.12482040	     86.76516121	     -7.75464282	    -34.99785588	     54.67723299	     80.31694685	     71.03588969
      0.00833330	    -23.85279441	      0.64465352	      1.31511646	     -1.05261921	      1.25667298	     -0.10631119	     29.06886834	     -3.81421233	      0.47841010	      1.82482698	      0.03184924	      5.41974816	     -1.81209891	     -6.57758526	     30.23775172	      2.05772062	      4.08703582	      4.39687781	      0.07673999	      0.04101885	      1.13301034	     -6.57758526	     -2.75413241	     -0.77625080	      2.63401433	    -22.09941280	    -32.46511634	     35.12568590	     86.58067638	     92.29380039	     -7.68226777	    -35.29820547	     55.58192832	     79.85321946	     78.38819538
      0.01250000	    -23.76561256	      0.61830069	      1.28805231	     -1.05303193	      1.25737185	     -0.10643741	     28.55349889	     -3.68781980	      0.71384344	      1.15199924	      0.02010618	      5.37213162	     -1.46952968	     -6.93520571	     29.65383104	      1.98227262	      4.56857552	      2.90955509	      0.05078132	     -0.88222803	      1.07745047	     -6.93520571	     -3.08080850	     -0.83799966	      2.19623865	    -21.43993187	    -32.21433043	     35.07187278	     85.69197980	     91.67240383	     -8.07163267	    -35.65547792	     54.61021650	     80.20555856	     80.81437761
      0.01666670	    -23.81294897	      0.61630939	      1.06497982	     -1.05289769	      1.25723999	     -0.10627767	     28.40435091	     -3.64529373	      1.20974769	      0.83907878	      0.01464469	      5.42193638	     -1.35116509	     -7.10514290	     29.31293791	      1.94524804	      4.36794130	      1.97855499	      0.03453230	     -1.14858601	      1.85027853	     -7.10514290	     -3.23823533	     -0.62749588	      2.13960485	    -21.25321593	    -32.21894418	     35.13204027	     85.61568758	     87.27053809	     -8.31241950	    -35.65006058	     54.50370477	     80.49515397	     77.62226538
      0.02083330	    -23.74340269	      0.48346547	      0.96045441	     -1.05308798	      1.25719837	     -0.10648546	     28.16905521	     -3.49929556	      1.56516967	      0.67982336	      0.01186516	      5.44149014	     -1.38888193	     -7.30359572	     29.04407688	      1.77992848	      4.55651641	      1.55732285	      0.02718041	     -1.30203442	      1.90504788	     -7.30359572	     -3.60319911	     -0.22451752	      2.02269136	    -21.09770584	    -32.31758557	     34.65757855	     85.72746113	     93.36647819	     -8.49831701	    -35.49784945	     53.79417760	     80.71594102	     83.84620410
      0.02500000	    -23.53140850	      0.36981724	      0.91538859	     -1.05299229	      1.25756434	     -0.10655926	     27.80528583	     -3.41438356	      1.59624572	      0.60106651	      0.01049059	      5.56299697	     -1.09947002	     -7.37922490	     28.69720058	      1.67656737	      4.60321368	      1.33038587	      0.02321961	     -1.13478899	      2.40027311	     -7.37922490	     -3.93856214	      0.03894798	      1.89992488	    -20.69411239	    -32.66409396	     35.51054713	     85.81014094	     88.13221333	     -8.44577455	    -35.38326630	     54.11305871	     81.01544885	     79.37047501
      0.02916670	    -23.57928000	      0.33869652	      0.71175927	     -1.05323825	      1.25730798	     -0.10667548	     27.85124098	     -3.34300195	      1.93814318	      0.57346417	      0.01000884	      5.25620693	     -1.51918604	     -7.44215767	     28.66085128	      1.55480996	      4.55738260	      1.22791736	      0.02143120	     -1.08296423	      2.63613432	     -7.44215767	     -3.95568252	      0.16572867	      2.03582166	    -20.63003668	    -32.79853206	     35.35219829	     85.85969540	     93.92751173	     -8.36567880	    -35.21698605	     54.06926326	     81.04597977	     84.00575037
